<?xml version="1.0" encoding="utf-8"?>
<!-- Generator: Adobe Illustrator 19.1.0, SVG Export Plug-In . SVG Version: 6.00 Build 0)  -->
<svg version="1.1" id="Layer_1" xmlns="http://www.w3.org/2000/svg" xmlns:xlink="http://www.w3.org/1999/xlink" x="0px" y="0px"
	 viewBox="0 0 215.4 217.9" style="enable-background:new 0 0 215.4 217.9;" xml:space="preserve">
<style type="text/css">
	.st0{fill:#F5C647;}
</style>
<path class="st0" d="M105.5,4.4C47.2,4.4,0,52.2,0,111.1s47.2,106.7,105.5,106.7c58.3,0,105.5-47.8,105.5-106.7S163.8,4.4,105.5,4.4
	z M105.5,201.2c-49.2,0-89-40.3-89-90.1s39.8-90.1,89-90.1c49.2,0,89,40.3,89,90.1S154.7,201.2,105.5,201.2z"/>
<g>
	<rect x="59.3" y="144.5" class="st0" width="92.3" height="13.3"/>
	<rect x="59.3" y="117.8" class="st0" width="92.3" height="13.3"/>
	<rect x="59.3" y="91.1" class="st0" width="92.3" height="13.3"/>
	<rect x="59.3" y="64.4" class="st0" width="92.3" height="13.3"/>
</g>
</svg>
