<?xml version="1.0" encoding="utf-8"?>
<!-- Generator: Adobe Illustrator 19.1.0, SVG Export Plug-In . SVG Version: 6.00 Build 0)  -->
<svg version="1.1" id="Layer_1" xmlns="http://www.w3.org/2000/svg" xmlns:xlink="http://www.w3.org/1999/xlink" x="0px" y="0px"
	 viewBox="-331 135 296 291" style="enable-background:new -331 135 296 291;" xml:space="preserve">
<style type="text/css">
	.st0{fill:#FFFFFF;stroke:#F5C647;stroke-miterlimit:10;}
</style>
<g>
	<path class="st0" d="M-183,135c-78.4,0-142,62.9-142,140.5s63.6,140.6,142,140.6s142-62.9,142-140.5S-104.6,135-183,135z
		 M-183,394.1c-66.2,0-119.8-53-119.8-118.6S-249.2,157-183,157s119.8,53,119.8,118.6S-116.8,394.1-183,394.1z"/>
	<path class="st0" d="M-149.3,254H-174v-17.8c0-5.5,5.7-6.7,8.4-6.7c2.6,0,16,0,16,0v-24.1l-18.3-0.1c-24.9,0-30.7,18-30.7,29.5
		v19.3h-18.1v24.8h18.1c0,31.9,0,67,0,67h24.6c0,0,0-35.4,0-67h20.9L-149.3,254z"/>
</g>
</svg>
