<?xml version="1.0" encoding="utf-8"?>
<!-- Generator: Adobe Illustrator 19.1.0, SVG Export Plug-In . SVG Version: 6.00 Build 0)  -->
<svg version="1.1" id="Layer_1" xmlns="http://www.w3.org/2000/svg" xmlns:xlink="http://www.w3.org/1999/xlink" x="0px" y="0px"
	 viewBox="-334 136 291 290" style="enable-background:new -334 136 291 290;" xml:space="preserve">
<style type="text/css">
	.st0{fill:#FFFFFF;stroke:#F5C647;stroke-width:7;stroke-miterlimit:10;}
	.st1{fill:#FFFFFF;stroke:#F5C647;stroke-width:4;stroke-miterlimit:10;}
	.st2{fill:#FFFFFF;stroke:#F5C647;stroke-width:1.0473;stroke-miterlimit:10;}
</style>
<path class="st0" d="M-128.6,348h-109.7c-6.5,0-11.8-5.3-11.8-11.8V222.4c0-6.5,5.3-11.8,11.8-11.8h109.7c6.5,0,11.8,5.3,11.8,11.8
	v113.8C-116.8,342.7-122.1,348-128.6,348z"/>
<path class="st1" d="M-183.4,281.7c-11.5,0-21,9.4-21,21.2c0,11.6,9.4,21.2,21,21.2s21-9.4,21-21.2S-171.8,281.7-183.4,281.7z"/>
<path class="st2" d="M-188.6,137.7c-79.4,0-143.6,64.1-143.6,143.3s64.4,143.3,143.6,143.3c79.4,0,143.7-64.1,143.7-143.3
	S-109.3,137.7-188.6,137.7z M-188.6,402c-67,0-121.3-54.1-121.3-120.9s54.3-120.9,121.3-120.9s121.3,54.1,121.3,120.9
	S-121.7,402-188.6,402z"/>
<path class="st0" d="M-125.2,257.8h-37.5c-1.9,0-3.8-8.2-4.2-9.1c-0.8-1.8-3.7-9-8.3-9h-16.7c-4.5,0-7.5,7.1-8.3,9
	c-0.4,0.8-2.3,9.1-4.2,9.1h-37.5c-4.5,0-8.3,4.1-8.3,9.1V339c0,4.9,3.7,9,8.3,9h116.7c4.5,0,8.3-4,8.3-9v-72.2
	C-116.7,261.9-120.4,257.8-125.2,257.8z M-183.4,339c-18.5,0-33.4-16.2-33.4-36.1s14.9-36.1,33.4-36.1s33.4,16.2,33.4,36.1
	C-150.1,322.8-165.1,339-183.4,339z"/>
</svg>
