<?xml version="1.0" encoding="utf-8"?>
<!-- Generator: Adobe Illustrator 19.1.0, SVG Export Plug-In . SVG Version: 6.00 Build 0)  -->
<svg version="1.1" id="Layer_1" xmlns="http://www.w3.org/2000/svg" xmlns:xlink="http://www.w3.org/1999/xlink" x="0px" y="0px"
	 viewBox="360.8 127 286.2 287" style="enable-background:new 360.8 127 286.2 287;" xml:space="preserve">
<style type="text/css">
	.st0{fill:#FFFFFF;stroke:#F5C647;stroke-miterlimit:10;}
</style>
<g>
	<g>
		<polygon class="st0" points="441.3,333.3 477.1,315.3 477.1,207.7 441.3,225.7 		"/>
		<polygon class="st0" points="486,315.3 521.8,333.3 521.8,225.7 486,207.7 		"/>
		<polygon class="st0" points="530.7,333.3 566.5,315.3 566.5,207.7 530.7,225.7 		"/>
	</g>
	<path class="st0" d="M503.9,127c-79,0-143.1,64.2-143.1,143.5S424.9,414,503.9,414S647,349.8,647,270.5S582.9,127,503.9,127z
		 M503.9,391.5c-66.7,0-120.7-54.2-120.7-121s54.1-121,120.7-121s120.7,54.2,120.7,121S570.6,391.5,503.9,391.5z"/>
</g>
</svg>
