<?xml version="1.0" encoding="utf-8"?>
<!-- Generator: Adobe Illustrator 19.1.0, SVG Export Plug-In . SVG Version: 6.00 Build 0)  -->
<svg version="1.1" id="Layer_1" xmlns="http://www.w3.org/2000/svg" xmlns:xlink="http://www.w3.org/1999/xlink" x="0px" y="0px"
	 viewBox="-328 134.6 302.7 293.4" style="enable-background:new -328 134.6 302.7 293.4;" xml:space="preserve">
<style type="text/css">
	.st0{fill:#FFFFFF;stroke:#F5C647;stroke-miterlimit:10;}
</style>
<path class="st0" d="M-178,140.7c-79.5,0-143.9,63.5-143.9,141.9s64.4,141.8,143.9,141.8s143.9-63.5,143.9-141.8
	S-98.5,140.7-178,140.7z M-178,402.2c-67,0-121.4-53.6-121.4-119.7S-245,162.9-178,162.9s121.4,53.6,121.4,119.7
	S-111,402.2-178,402.2z"/>
<path class="st0" d="M-138,353.5c3.2,0,32-21,32-23.6c0-2.7-32.2-22.7-35-22.7s-12.1,11-14.6,12.3c-2.5,1.2-18.3,0.8-35.8-16.5
	c-17.6-17.3-23.6-37.2-23.6-40.4c0-3.1,14.6-12.8,15-15c0.4-2.3-19.3-35.9-22.5-35.9s-27.5,29.1-27.5,31.5c0,2.4,2.2,33.6,42.3,73.1
	C-167.6,355.7-141.2,353.4-138,353.5z"/>
</svg>
