<?xml version="1.0" encoding="utf-8"?>
<!-- Generator: Adobe Illustrator 19.1.0, SVG Export Plug-In . SVG Version: 6.00 Build 0)  -->
<svg version="1.1" id="Layer_1" xmlns="http://www.w3.org/2000/svg" xmlns:xlink="http://www.w3.org/1999/xlink" x="0px" y="0px"
	 viewBox="-336 139.5 285.7 283.5" style="enable-background:new -336 139.5 285.7 283.5;" xml:space="preserve">
<style type="text/css">
	.st0{fill:#FFFFFF;stroke:#F5C467;stroke-miterlimit:10;}
</style>
<g>
	<path class="st0" d="M-190.6,139.5c-78.9-1.4-144,60.9-145.4,139.2s61.4,142.9,140.3,144.3s144-60.9,145.4-139.2
		C-48.9,205.5-111.8,140.9-190.6,139.5z M-195.3,400.8c-66.6-1.2-119.6-55.7-118.4-121.7s56.1-118.6,122.7-117.5
		c66.6,1.2,119.6,55.7,118.4,121.7C-73.8,349.4-128.8,402-195.3,400.8z"/>
	<path class="st0" d="M-191.9,210.4c-39.4-0.7-72,30.5-72.7,69.6s30.7,71.4,70.2,72.1s72-30.5,72.7-69.6S-152.5,211.1-191.9,210.4z
		 M-194.2,338.8c-32-0.6-57.6-26.8-57-58.6s27-57.1,59.1-56.6c32,0.6,57.6,26.8,57,58.6C-135.7,314.1-162.2,339.4-194.2,338.8z"/>
	<path class="st0" d="M-193.3,290.1c-4.9-0.1-8.9-4.1-8.8-9s4.2-8.8,9.1-8.7c4.9,0.1,8.9,4.1,8.8,9S-188.4,290.2-193.3,290.1z"/>
	<polygon class="st0" points="-198.7,281.9 -192.3,275.8 -171.8,296.8 -178.3,303 	"/>
	<polygon class="st0" points="-228.1,251.7 -221.7,245.6 -187.6,280.6 -194,286.7 	"/>
</g>
</svg>
