<?xml version="1.0" encoding="utf-8"?>
<!-- Generator: Adobe Illustrator 19.1.0, SVG Export Plug-In . SVG Version: 6.00 Build 0)  -->
<svg version="1.1" id="Layer_1" xmlns="http://www.w3.org/2000/svg" xmlns:xlink="http://www.w3.org/1999/xlink" x="0px" y="0px"
	 viewBox="-332 137 294.4 288" style="enable-background:new -332 137 294.4 288;" xml:space="preserve">
<style type="text/css">
	.st0{fill:#FFFFFF;stroke:#FFF41C;stroke-width:1.1337;stroke-miterlimit:10;}
</style>
<g>
	<path class="st0" d="M-110,240c-2.4,1.4-9.6,4.3-16.3,5c4.3-2.4,10.7-10.6,12.3-17.1c-4.2,2.8-13.7,7-18.4,7l0,0
		c-5.4-6.1-12.9-9.8-21.3-9.8c-16.2,0-29.5,14.1-29.5,31.5c0,2.4,0.2,4.8,0.8,7l0,0c-22.1-0.6-47.9-12.5-62.4-32.7
		c-8.9,16.5-1.2,34.9,8.9,41.7c-3.4,0.2-9.8-0.5-12.9-3.6c-0.2,10.9,4.7,25.5,22.7,30.8c-3.4,2-9.6,1.4-12.3,1
		c1,9.3,13,21.4,26.4,21.4c-4.7,5.8-20.9,16.5-40.9,13c13.6,8.8,29.4,14,46.1,14c47.6,0,84.5-41.2,82.5-92.1V257c0-0.1,0-0.2,0-0.3
		c0-0.1,0-0.3,0-0.5C-119.9,253.1-114.1,247.4-110,240z"/>
	<path class="st0" d="M-188.5,139c-78.8,0-142.9,63.6-142.9,142s63.9,142,142.9,142s142.9-63.6,142.9-142S-109.7,139-188.5,139z
		 M-188.5,400.8c-66.6,0-120.5-53.7-120.5-119.8s54-119.8,120.5-119.8C-121.9,161.2-68,214.9-68,281S-121.9,400.8-188.5,400.8z"/>
</g>
</svg>
